<svg width="270" height="38" viewBox="0 0 270 38" fill="none" xmlns="http://www.w3.org/2000/svg">
<path d="M7.49805 24.4756V37H0.173828V1.45312H14.041C16.7103 1.45312 19.054 1.94141 21.0723 2.91797C23.1068 3.89453 24.6693 5.28613 25.7598 7.09277C26.8503 8.88314 27.3955 10.9258 27.3955 13.2207C27.3955 16.7038 26.1992 19.4544 23.8066 21.4727C21.4303 23.4746 18.1344 24.4756 13.9189 24.4756H7.49805ZM7.49805 18.543H14.041C15.9779 18.543 17.4508 18.0872 18.46 17.1758C19.4854 16.2643 19.998 14.9622 19.998 13.2695C19.998 11.528 19.4854 10.1201 18.46 9.0459C17.4346 7.97168 16.0186 7.41829 14.2119 7.38574H7.49805V18.543ZM39.4316 37H32.3516V10.584H39.4316V37ZM31.9365 3.74805C31.9365 2.6901 32.2865 1.81934 32.9863 1.13574C33.7025 0.452148 34.6709 0.110352 35.8916 0.110352C37.096 0.110352 38.0563 0.452148 38.7725 1.13574C39.4886 1.81934 39.8467 2.6901 39.8467 3.74805C39.8467 4.82227 39.4805 5.70117 38.748 6.38477C38.0319 7.06836 37.0798 7.41016 35.8916 7.41016C34.7035 7.41016 33.7432 7.06836 33.0107 6.38477C32.2946 5.70117 31.9365 4.82227 31.9365 3.74805ZM53.3721 31.3115H66.2871V37H44.3633V32.7031L56.79 16.2969H44.7295V10.584H65.8965V14.7588L53.3721 31.3115ZM78.8115 31.3115H91.7266V37H69.8027V32.7031L82.2295 16.2969H70.1689V10.584H91.3359V14.7588L78.8115 31.3115ZM111.453 37C111.128 36.3652 110.892 35.5758 110.745 34.6318C109.036 36.5361 106.814 37.4883 104.08 37.4883C101.492 37.4883 99.3438 36.7396 97.6348 35.2422C95.9421 33.7448 95.0957 31.8568 95.0957 29.5781C95.0957 26.7786 96.1292 24.6302 98.1963 23.1328C100.28 21.6354 103.283 20.8786 107.205 20.8623H110.452V19.3486C110.452 18.1279 110.135 17.1514 109.5 16.4189C108.882 15.6865 107.897 15.3203 106.546 15.3203C105.358 15.3203 104.422 15.6051 103.738 16.1748C103.071 16.7445 102.737 17.5257 102.737 18.5186H95.6816C95.6816 16.9886 96.1536 15.5726 97.0977 14.2705C98.0417 12.9684 99.3763 11.9512 101.102 11.2188C102.827 10.4701 104.764 10.0957 106.912 10.0957C110.167 10.0957 112.747 10.9176 114.651 12.5615C116.572 14.1891 117.532 16.484 117.532 19.4463V30.8965C117.549 33.403 117.898 35.2992 118.582 36.585V37H111.453ZM105.618 32.0928C106.66 32.0928 107.62 31.8649 108.499 31.4092C109.378 30.9372 110.029 30.3105 110.452 29.5293V24.9883H107.815C104.284 24.9883 102.404 26.209 102.176 28.6504L102.151 29.0654C102.151 29.9443 102.461 30.6686 103.079 31.2383C103.698 31.8079 104.544 32.0928 105.618 32.0928Z" fill="#39B24A"/>
<path d="M121.976 27.4297C121.976 25.7858 122.431 24.264 123.343 22.8643C124.271 21.4645 125.963 19.9102 128.421 18.2012C127.363 16.7852 126.533 15.4587 125.931 14.2217C125.328 12.9684 125.027 11.6663 125.027 10.3154C125.027 7.5485 125.898 5.30241 127.64 3.57715C129.397 1.83561 131.757 0.964844 134.72 0.964844C137.373 0.964844 139.546 1.75423 141.238 3.33301C142.947 4.91178 143.802 6.88118 143.802 9.24121C143.802 12.0732 142.369 14.5716 139.505 16.7363L136.771 18.7139L142.898 25.8428C143.859 23.9548 144.339 21.8714 144.339 19.5928H150.345C150.345 24.2152 149.279 27.9587 147.146 30.8232L152.469 37H144.461L142.63 34.9004C140.009 36.6257 136.998 37.4883 133.597 37.4883C130.081 37.4883 127.265 36.5687 125.149 34.7295C123.034 32.874 121.976 30.4408 121.976 27.4297ZM133.938 31.8242C135.631 31.8242 137.234 31.3522 138.748 30.4082L131.741 22.3027L131.229 22.6689C129.78 23.9059 129.056 25.3626 129.056 27.0391C129.056 28.4551 129.503 29.6107 130.398 30.5059C131.31 31.3848 132.49 31.8242 133.938 31.8242ZM131.351 10.2178C131.351 11.4385 132.067 12.9766 133.499 14.832L135.379 13.5869C136.339 12.9684 136.998 12.3662 137.356 11.7803C137.731 11.1943 137.918 10.4945 137.918 9.68066C137.918 8.86686 137.617 8.15885 137.015 7.55664C136.412 6.95443 135.639 6.65332 134.695 6.65332C133.686 6.65332 132.872 6.97884 132.254 7.62988C131.652 8.28092 131.351 9.14355 131.351 10.2178Z" fill="white"/>
<path d="M177.615 22.4736H163.553V37H156.229V1.45312H179.373V7.38574H163.553V16.5654H177.615V22.4736ZM197.366 17.2002C196.406 17.07 195.56 17.0049 194.827 17.0049C192.158 17.0049 190.408 17.9082 189.578 19.7148V37H182.522V10.584H189.188L189.383 13.7334C190.799 11.3083 192.76 10.0957 195.267 10.0957C196.048 10.0957 196.78 10.2015 197.464 10.4131L197.366 17.2002ZM198.807 23.5479C198.807 20.9274 199.311 18.5918 200.32 16.541C201.329 14.4902 202.778 12.9033 204.666 11.7803C206.57 10.6572 208.776 10.0957 211.282 10.0957C214.847 10.0957 217.752 11.1862 219.998 13.3672C222.26 15.5482 223.522 18.5104 223.782 22.2539L223.831 24.0605C223.831 28.1133 222.7 31.3685 220.438 33.8262C218.175 36.2676 215.14 37.4883 211.331 37.4883C207.522 37.4883 204.479 36.2676 202.2 33.8262C199.938 31.3848 198.807 28.0645 198.807 23.8652V23.5479ZM205.862 24.0605C205.862 26.5671 206.334 28.4876 207.278 29.8223C208.222 31.1406 209.573 31.7998 211.331 31.7998C213.04 31.7998 214.375 31.1488 215.335 29.8467C216.295 28.5283 216.775 26.4287 216.775 23.5479C216.775 21.0902 216.295 19.1859 215.335 17.835C214.375 16.484 213.024 15.8086 211.282 15.8086C209.557 15.8086 208.222 16.484 207.278 17.835C206.334 19.1696 205.862 21.2448 205.862 24.0605ZM234.671 10.584L234.891 13.6357C236.779 11.2757 239.31 10.0957 242.483 10.0957C245.283 10.0957 247.366 10.9176 248.733 12.5615C250.101 14.2054 250.8 16.6631 250.833 19.9346V37H243.777V20.1055C243.777 18.6081 243.452 17.5257 242.801 16.8584C242.15 16.1748 241.067 15.833 239.554 15.833C237.568 15.833 236.079 16.6794 235.086 18.3721V37H228.03V10.584H234.671ZM264.651 4.08984V10.584H269.168V15.7598H264.651V28.9434C264.651 29.9199 264.839 30.6198 265.213 31.043C265.587 31.4661 266.303 31.6777 267.361 31.6777C268.143 31.6777 268.834 31.6208 269.437 31.5068V36.8535C268.053 37.2767 266.629 37.4883 265.164 37.4883C260.216 37.4883 257.693 34.9899 257.596 29.9932V15.7598H253.738V10.584H257.596V4.08984H264.651Z" fill="#FC200C"/>
</svg>
